<?xml version="1.0" encoding="UTF-8" standalone="no"?>
<!-- Created with Inkscape (http://www.inkscape.org/) -->

<svg
   xmlns:dc="http://purl.org/dc/elements/1.1/"
   xmlns:cc="http://creativecommons.org/ns#"
   xmlns:rdf="http://www.w3.org/1999/02/22-rdf-syntax-ns#"
   xmlns:svg="http://www.w3.org/2000/svg"
   xmlns="http://www.w3.org/2000/svg"
   xmlns:sodipodi="http://sodipodi.sourceforge.net/DTD/sodipodi-0.dtd"
   xmlns:inkscape="http://www.inkscape.org/namespaces/inkscape"
   width="216.39732"
   height="43.504131"
   viewBox="0 0 57.255124 11.510468"
   version="1.1"
   id="svg8"
   inkscape:version="0.92.3 (2405546, 2018-03-11)"
   sodipodi:docname="psu.svg">
  <defs
     id="defs2" />
  <sodipodi:namedview
     id="base"
     pagecolor="#00ffff"
     bordercolor="#666666"
     borderopacity="1.0"
     inkscape:pageopacity="0"
     inkscape:pageshadow="2"
     inkscape:zoom="0.35"
     inkscape:cx="-43.229896"
     inkscape:cy="241.75208"
     inkscape:document-units="mm"
     inkscape:current-layer="layer1"
     showgrid="false"
     inkscape:pagecheckerboard="false"
     units="px"
     fit-margin-left="0.2"
     fit-margin-top="0.2"
     fit-margin-right="0.2"
     fit-margin-bottom="0.2"
     inkscape:window-width="1920"
     inkscape:window-height="1001"
     inkscape:window-x="-9"
     inkscape:window-y="-9"
     inkscape:window-maximized="1" />
  <metadata
     id="metadata5">
    <rdf:RDF>
      <cc:Work
         rdf:about="">
        <dc:format>image/svg+xml</dc:format>
        <dc:type
           rdf:resource="http://purl.org/dc/dcmitype/StillImage" />
        <dc:title></dc:title>
      </cc:Work>
    </rdf:RDF>
  </metadata>
  <g
     inkscape:label="Layer 1"
     inkscape:groupmode="layer"
     id="layer1"
     transform="translate(-117.27124,-201.28643)">
    <g
       id="g10"
       transform="matrix(0.35277777,0,0,-0.35277777,117.32416,212.74398)">
      <g
         id="g12"
         transform="scale(0.1)">
        <path
           d="m 249.988,221.047 c 0,0 -25.718,0 -26.59,0 0,0.906 0,36.453 0,36.453 0,36.27 -29.515,65.781 -65.781,65.781 -36.273,0 -65.785,-29.511 -65.785,-65.781 0,0 0,-35.547 0,-36.453 -0.8632,0 -26.0586,0 -26.0586,0 C 29.5117,221.047 0,191.543 0,155.234 0,119.004 29.5117,89.4922 65.7734,89.4922 c 0,0 25.1954,0 26.0586,0 0,-0.8789 0,-23.75 0,-23.75 C 91.832,29.4531 121.344,0 157.617,0 c 36.266,0 65.781,29.4531 65.781,65.7422 0,0 0,22.8711 0,23.75 0.872,0 26.59,0 26.59,0 36.258,0 65.789,29.5118 65.789,65.7418 0,36.309 -29.531,65.813 -65.789,65.813 z M 116.852,257.5 c 0,22.473 18.265,40.742 40.746,40.742 22.754,0 41.281,-17.949 41.281,-40.078 0,-22.441 -18.527,-40.742 -41.281,-40.742 h -4.864 v 19.933 h 4.864 c 11.562,0 21.332,9.54 21.332,20.809 0,11.113 -9.571,20.156 -21.332,20.156 -11.481,0 -20.813,-9.355 -20.813,-20.82 V 179.551 L 116.852,163.32 Z M 198.355,65.7422 c 0,-22.4609 -18.281,-40.7617 -40.757,-40.7617 -22.481,0 -40.746,18.3008 -40.746,40.7617 v 25.3516 h 19.933 V 65.7422 c 0,-11.4844 9.332,-20.8399 20.813,-20.8399 11.472,0 20.816,9.3555 20.816,20.8399 v 65.1958 l 19.941,16.015 z M 250,114.512 h -27.02 v 19.961 H 250 c 11.488,0 20.816,9.316 20.816,20.761 0,11.524 -9.328,20.852 -20.816,20.852 h -39.52 c -5.312,0 -10.125,-1.555 -16.613,-5.352 -1.226,-0.683 -5.883,-4.113 -7.554,-5.461 -39.727,-31.914 -45.833,-36.816 -46.325,-37.207 -1.582,-1.25 -5.593,-4.296 -8.347,-5.8 -7.465,-4.551 -15.426,-7.325 -23.036,-7.754 H 65.7422 c -22.4609,0 -40.7539,18.281 -40.7539,40.722 0,22.5 18.293,40.782 40.7539,40.782 h 26.9609 v -19.93 H 65.7422 c -11.4844,0 -20.8164,-9.328 -20.8164,-20.852 0,-11.445 9.332,-20.761 20.8164,-20.761 0,0 41.3628,0.039 41.3358,0.039 4.692,0.254 9.488,1.972 15.074,5.41 l 5.371,3.808 c 0,0 46.149,37.176 46.188,37.137 0.059,0.063 7.191,5.735 11.031,7.707 8.703,5.086 16.879,7.442 25.738,7.442 H 250 c 22.484,0 40.758,-18.282 40.758,-40.782 0,-22.441 -18.274,-40.722 -40.758,-40.722"
           style="fill:#658c14;fill-opacity:1;fill-rule:nonzero;stroke:none"
           id="path14"
           inkscape:connector-curvature="0" />
        <path
           d="m 544.32,210.859 c -25.429,0 -44.609,-21.406 -44.609,-49.765 0,-28.496 19.18,-50 44.609,-50 25.293,0 44.356,21.504 44.356,50 0,28.359 -19.063,49.765 -44.356,49.765 z m 0,-92.168 c -18.672,0 -25.937,11.895 -25.937,42.403 0,30.508 7.265,42.383 25.937,42.383 18.496,0 25.703,-11.875 25.703,-42.383 0,-30.508 -7.207,-42.403 -25.703,-42.403"
           style="fill:#000000;fill-opacity:1;fill-rule:nonzero;stroke:none"
           id="path16"
           inkscape:connector-curvature="0" />
        <path
           d="m 1459.86,121.934 -0.15,0.273 c -0.26,0.41 -0.69,0.684 -1.19,0.723 -0.45,0.039 -0.96,-0.137 -1.27,-0.508 -1.86,-2.129 -3.62,-3.242 -5.08,-3.242 -3.11,0 -3.99,1.894 -3.99,8.535 v 51.504 c 0,20.996 -10.74,31.64 -31.91,31.64 -13.89,0 -30.02,-9.011 -30.02,-20.605 0,-5.606 4.12,-9.832 9.57,-9.832 5.27,0 9.57,4.422 9.57,9.832 0,3.379 -1.5,6.199 -4.2,7.949 0,0 -0.04,0.02 -0.06,0.039 l 0.06,0.059 c 0.96,1.328 4.9,5.644 15.08,5.644 10.35,0 15.35,-5.175 15.35,-15.82 v -19.59 h -0.04 c -25.58,0 -53.06,-10.398 -53.06,-33.203 0,-13.516 9.55,-23.301 22.73,-23.301 10.2,0 20.51,4.746 30.72,14.063 l 0.1,0.078 v -0.137 c 1.39,-7.695 8.2,-13.535 15.86,-13.535 5.45,0 10.35,3.457 12.77,5.508 0.55,0.527 0.73,1.347 0.34,1.992 z m -28.24,11.601 h -0.02 c -11.37,-10.176 -18.51,-11.308 -22.85,-11.308 -6.91,0 -12.75,7.382 -12.75,16.171 0,15.293 12.28,23.418 35.58,23.418 h 0.04 v -28.281"
           style="fill:#000000;fill-opacity:1;fill-rule:nonzero;stroke:none"
           id="path18"
           inkscape:connector-curvature="0" />
        <path
           d="m 900.566,120.43 -1.074,1.777 c -0.273,0.41 -0.683,0.684 -1.191,0.723 -0.488,0.039 -0.957,-0.137 -1.27,-0.508 -1.894,-2.129 -3.613,-3.242 -5.078,-3.242 -3.105,0 -4.004,1.894 -4.004,8.535 v 51.504 c 0,20.996 -10.742,31.64 -31.894,31.64 -13.887,0 -30.039,-9.011 -30.039,-20.605 0,-5.606 4.121,-9.832 9.589,-9.832 5.274,0 9.571,4.422 9.571,9.832 0,3.379 -1.504,6.199 -4.199,7.949 0,0 -0.059,0.02 -0.059,0.039 l 0.039,0.059 c 0.957,1.328 4.922,5.644 15.098,5.644 10.351,0 15.371,-5.175 15.371,-15.82 v -19.59 h -0.059 c -25.586,0 -53.082,-10.398 -53.082,-33.203 0,-13.516 9.567,-23.301 22.75,-23.301 10.195,0 20.508,4.746 30.703,14.063 l 0.117,0.078 0.02,-0.137 c 1.367,-7.695 8.164,-13.535 15.801,-13.535 5.488,0 10.371,3.457 12.812,5.508 0.586,0.527 0.703,1.347 0.313,1.992 z m -29.14,13.105 h -0.039 C 860,123.359 852.891,122.227 848.535,122.227 c -6.933,0 -12.773,7.382 -12.773,16.171 0,15.293 12.304,23.418 35.605,23.418 h 0.059 v -28.281"
           style="fill:#000000;fill-opacity:1;fill-rule:nonzero;stroke:none"
           id="path20"
           inkscape:connector-curvature="0" />
        <path
           d="M 1253.83,201.453 1242.52,205 c -15.43,4.316 -24.24,14.258 -24.24,27.344 0,16.504 11.7,28.027 28.52,28.027 23.96,0 32.52,-16.785 32.52,-32.5 0,-2.48 1.11,-3.691 3.45,-3.691 2.29,0 3.46,1.25 3.46,3.691 v 38.067 c 0,1.796 -0.47,3.476 -3.69,3.476 -2.89,0 -3.22,-2.09 -3.22,-3.699 0,-2.61 -2.02,-5.207 -4.03,-6.633 l -0.06,-0.039 -0.05,0.066 c -3.62,3.918 -12.21,10.539 -29.09,10.539 -20.56,0 -42.73,-15.703 -42.73,-41.074 0,-22.773 13.77,-38.926 39.88,-46.699 0.04,0 0.04,-0.012 0.04,-0.012 0.16,-0.054 0.29,-0.054 0.41,-0.054 -0.12,0 -0.23,0 -0.35,0.027 l 9.08,-2.578 c 10.41,-2.871 27.83,-10.547 27.83,-29.688 0,-18.379 -16.15,-28.281 -31.34,-28.281 -22.68,0 -37.91,15.234 -37.91,37.91 0,1.875 -0.3,3.703 -3.46,3.703 -2.29,0 -3.48,-1.3 -3.48,-3.703 v -43.73 c 0,-1.211 0,-3.692 3.71,-3.692 2.17,0 3.23,1.309 3.23,3.946 0,3.515 1.87,6.972 4.51,8.261 l 0.04,0.039 0.02,-0.039 c 4.22,-3.867 15.76,-12.89 32.4,-12.89 28.16,0 48.61,18.847 48.61,44.844 0,22.058 -14.39,37.382 -42.75,45.515 z m -8.63,-18.562 c 0,0 0,-0.032 -0.02,-0.032 0.02,0.032 0.02,0.032 0.02,0.032 v 0"
           style="fill:#000000;fill-opacity:1;fill-rule:nonzero;stroke:none"
           id="path22"
           inkscape:connector-curvature="0" />
        <path
           d="m 1616.31,142.441 c -2.15,0 -3.09,-2.246 -3.71,-3.691 -4.57,-13.008 -14.36,-19.824 -28.28,-19.824 -17.97,0 -27.09,13.594 -27.09,40.429 0,-0.031 0.15,5.879 0.21,8.77 0.72,0 60.14,0 60.14,0 0.82,0 1.5,0.598 1.54,1.406 l 0.04,0.496 c 0.06,0.852 0.14,1.75 0.14,2.629 0,10.098 -3.48,19.473 -9.69,26.387 -6.97,7.734 -16.58,11.816 -27.89,11.816 -21.21,0 -43.18,-18.613 -43.18,-49.765 0,-30.899 22.3,-50 42.94,-50 10.3,0 28.81,3.047 37.56,23.476 0.47,1.133 0.94,3.243 0.94,4.414 0,1.7 -1.25,3.457 -3.67,3.457 z m -57.7,33.868 c 3.05,17.785 11.78,27.168 25.24,27.168 20.25,0 21.07,-26.895 21.07,-27.2 0,0 0,-0.007 0,-0.047 h -46.31 c 0,0.04 0,0.079 0,0.079"
           style="fill:#000000;fill-opacity:1;fill-rule:nonzero;stroke:none"
           id="path24"
           inkscape:connector-curvature="0" />
        <path
           d="m 799.254,122.402 -13.176,-0.175 v 0.039 c 0,0.019 0,140.398 0,140.398 0,2.707 -1.758,4.184 -3.426,4.184 -0.109,-0.032 -4.875,-0.395 -4.855,-0.395 l -8.438,-0.594 c 0.137,0.032 -12.703,0.196 -12.703,0.196 0.008,0 -1.242,0.05 -1.242,0.05 -0.43,0 -0.82,-0.167 -1.113,-0.453 -0.301,-0.281 -0.469,-0.652 -0.469,-1.101 v -4.91 c 0,-0.442 0.176,-0.852 0.508,-1.125 0.312,-0.313 0.734,-0.457 1.152,-0.411 l 1.153,0.09 c 1.933,0.211 5.097,0.535 12.824,0.535 h 0.047 V 122.227 l -12.871,0.175 -1.231,0.039 c -0.41,0 -0.82,-0.156 -1.113,-0.449 -0.301,-0.293 -0.469,-0.664 -0.469,-1.094 v -4.941 c 0,-0.41 0.176,-0.82 0.488,-1.113 0.313,-0.293 0.754,-0.43 1.172,-0.391 l 0.84,0.039 c 2.402,0.254 6.809,0.684 21.133,0.684 h 0.937 c 11.817,0 17.786,-0.332 20.723,-0.586 0.402,-0.039 0.84,0.098 1.164,0.371 0.32,0.293 0.477,0.703 0.477,1.152 v 4.766 c 0,0.41 -0.137,0.82 -0.418,1.094 -0.293,0.293 -0.684,0.429 -1.094,0.429"
           style="fill:#000000;fill-opacity:1;fill-rule:nonzero;stroke:none"
           id="path26"
           inkscape:connector-curvature="0" />
        <path
           d="m 657.445,210.859 c -12.304,0 -21.855,-6.828 -26.297,-18.73 l -0.128,-0.371 v 12.129 c 0,2.5 -1.778,4.172 -3.457,4.172 -0.106,0 -5.137,-0.403 -5.137,-0.403 l -8.145,-0.554 c 0.137,0 -11.98,0.183 -11.98,0.183 -0.41,0 -0.813,-0.168 -1.106,-0.449 -0.273,-0.293 -0.449,-0.703 -0.449,-1.094 v -4.707 c 0,-0.43 0.195,-0.859 0.508,-1.152 0.332,-0.274 0.742,-0.43 1.172,-0.391 2.012,0.235 5.176,0.449 11.965,0.449 h 0.086 v -77.714 l -12.176,0.175 c -0.41,0 -0.821,-0.175 -1.106,-0.449 -0.273,-0.293 -0.449,-0.664 -0.449,-1.074 v -4.727 c 0,-0.429 0.176,-0.839 0.5,-1.132 0.301,-0.293 0.711,-0.43 1.16,-0.411 2.637,0.235 8.711,0.567 19.758,0.567 h 0.926 c 11.094,0 16.769,-0.332 19.551,-0.567 0.449,-0.058 0.859,0.098 1.191,0.411 0.313,0.273 0.488,0.703 0.488,1.113 v 4.746 c 0,0.41 -0.175,0.781 -0.468,1.074 -0.293,0.313 -0.684,0.449 -1.075,0.449 l -11.757,-0.175 v 0.039 c 0,0.019 0,40.468 0,40.468 0,17.5 4.921,31.125 13.535,37.422 3.965,2.903 8.437,3.848 12.285,2.617 l 0.117,-0.019 -0.086,-0.078 c -1.574,-1.571 -2.519,-3.281 -2.519,-6.824 0,-5.891 4.324,-10.364 10.027,-10.364 6.016,0 10.391,5.039 10.391,11.992 0,7.879 -7.137,13.379 -17.325,13.379"
           style="fill:#000000;fill-opacity:1;fill-rule:nonzero;stroke:none"
           id="path28"
           inkscape:connector-curvature="0" />
        <path
           d="M 447.797,265.891 429.926,265.625 421,265.41 c -13.367,0 -19.902,0.274 -22.988,0.508 -0.43,0.02 -0.848,-0.117 -1.153,-0.41 -0.332,-0.281 -0.507,-0.703 -0.507,-1.113 v -4.336 c 0,-0.403 0.168,-0.801 0.461,-1.075 0.3,-0.293 0.691,-0.449 1.101,-0.429 l 15.156,0.175 v -0.039 c 0,-0.019 0,-121.308 0,-136.464 l -11.679,0.156 c -0.411,0 -0.801,-0.156 -1.094,-0.43 -0.293,-0.293 -0.438,-0.664 -0.438,-1.094 v -4.707 c 0,-0.429 0.176,-0.839 0.477,-1.132 0.293,-0.293 0.742,-0.43 1.172,-0.411 2.5,0.235 8.371,0.567 19.492,0.567 h 2.824 c 11.953,0 17.645,-0.332 20.301,-0.567 0.441,-0.058 0.859,0.098 1.191,0.391 0.313,0.273 0.489,0.723 0.489,1.133 v 4.765 c 0,0.391 -0.145,0.801 -0.438,1.075 -0.304,0.293 -0.695,0.449 -1.105,0.429 h -0.399 c 0.008,0 -8.527,-0.117 -12.121,-0.175 v 0.039 c 0,0.019 0,46.523 0,55.566 h 16.055 c 32.812,0 52.383,16.523 52.383,44.16 0,27.473 -19.571,43.899 -52.383,43.899 z m 0,-79.739 h -16.055 v 71.172 h 16.055 c 23.808,0 31.836,-8.926 31.836,-35.332 0,-26.765 -8.028,-35.84 -31.836,-35.84"
           style="fill:#000000;fill-opacity:1;fill-rule:nonzero;stroke:none"
           id="path30"
           inkscape:connector-curvature="0" />
        <path
           d="m 739.418,207.344 c -0.008,0 -17.715,-0.196 -23.086,-0.242 v 0.078 c 0,-0.032 0,24.351 0,24.351 0,3.567 -0.234,6.75 -2.996,6.75 -3.039,0 -3.723,-2.273 -6.27,-14.929 -0.011,-0.032 -0.011,-0.051 -0.011,-0.063 -2.344,-12.449 -6.328,-14.832 -17.098,-15.66 -0.793,-0.07 -1.406,-0.727 -1.406,-1.535 v -4.805 c 0,-0.84 0.672,-1.543 1.512,-1.543 l 3.222,-0.039 c -0.019,0 4.336,-0.066 6.692,-0.098 v -0.117 c 0,0.059 0,-66.406 0,-66.406 0,-12.461 7.175,-19.902 19.218,-19.902 11.805,0 16.532,4.57 18.016,6.523 0.332,0.449 0.41,1.094 0.168,1.582 l -1.367,2.871 c -0.215,0.469 -0.637,0.762 -1.106,0.879 -0.515,0.078 -0.996,-0.098 -1.347,-0.43 -1.914,-1.855 -5.762,-4.98 -10.098,-4.98 -3.086,0 -7.129,0.976 -7.129,9.492 v 70.488 l 19.063,-0.078 4.015,-0.058 c 1.707,0 3.465,1.484 3.465,3.945 0,2.461 -1.758,3.926 -3.457,3.926"
           style="fill:#000000;fill-opacity:1;fill-rule:nonzero;stroke:none"
           id="path32"
           inkscape:connector-curvature="0" />
        <path
           d="m 1361.82,207.344 c -0.02,0 -17.72,-0.196 -23.09,-0.242 v 0.078 c 0,-0.032 0,24.351 0,24.351 0,3.567 -0.23,6.75 -3.01,6.75 -3.36,0 -3.98,-1.816 -6.27,-13.203 0,-0.019 0,-0.039 -0.04,-0.051 -2.28,-12.363 -6.28,-16.414 -17.07,-17.371 -0.8,-0.097 -1.4,-0.754 -1.4,-1.535 v -4.801 c 0,-0.402 0.17,-0.824 0.45,-1.086 0.29,-0.312 0.7,-0.449 1.13,-0.449 l 9.86,0.156 v -0.031 c 0,-0.027 0,-66.824 0,-66.824 0,-12.461 7.19,-19.902 19.2,-19.902 11.8,0 16.53,4.57 18.03,6.523 0.39,0.469 0.43,1.094 0.19,1.582 l -0.17,0.332 -1.21,2.539 c -0.24,0.469 -0.65,0.762 -1.12,0.879 -0.52,0.078 -0.99,-0.098 -1.34,-0.43 -1.92,-1.855 -5.76,-4.98 -10.12,-4.98 -3.05,0 -7.11,0.976 -7.11,9.492 v 70.852 l 19.1,-0.364 c -0.06,0 3.95,-0.136 3.95,-0.136 1.74,0 3.49,1.484 3.49,3.945 0,2.461 -1.75,3.926 -3.45,3.926"
           style="fill:#000000;fill-opacity:1;fill-rule:nonzero;stroke:none"
           id="path34"
           inkscape:connector-curvature="0" />
        <path
           d="m 1523.24,119.707 c 0.35,0.469 0.41,1.094 0.14,1.582 l -0.39,0.84 -0.98,2.07 c -0.23,0.43 -0.62,0.742 -1.11,0.84 -0.49,0.078 -1,-0.098 -1.35,-0.41 -1.89,-1.875 -5.74,-5 -10.1,-5 -3.04,0 -7.13,0.976 -7.13,9.492 v 70.852 l 19.09,-0.364 3.98,-0.136 c 1.76,0 3.52,1.484 3.52,3.945 0,2.461 -1.76,3.926 -3.5,3.926 0,0 -17.7,-0.196 -23.09,-0.242 v 0.078 c 0,-0.032 0,24.351 0,24.351 0,3.567 -0.23,6.75 -2.98,6.75 -3.4,0 -3.99,-1.816 -6.29,-13.203 v -0.019 c 0,-0.008 0,-0.02 0,-0.032 -2.33,-12.363 -6.29,-16.414 -17.15,-17.371 -0.76,-0.097 -1.35,-0.754 -1.35,-1.535 v -4.801 c 0,-0.402 0.14,-0.824 0.45,-1.086 0.27,-0.312 0.68,-0.449 1.09,-0.449 l 9.91,0.156 v -0.031 c 0,-0.027 0,-66.824 0,-66.824 0,-12.461 7.18,-19.902 19.2,-19.902 11.79,0 16.52,4.57 18.04,6.523"
           style="fill:#000000;fill-opacity:1;fill-rule:nonzero;stroke:none"
           id="path36"
           inkscape:connector-curvature="0" />
        <path
           d="m 1022.25,122.383 -12.58,-0.156 v 0.039 c 0,0.019 0,53.886 0,53.886 0,15.821 -5.04,34.707 -29.084,34.707 -15.039,0 -29.121,-13.496 -34.043,-26.504 l -0.117,-0.371 v 19.903 c 0,2.5 -1.797,4.172 -3.457,4.172 -0.098,0 -5.156,-0.403 -5.156,-0.403 0.019,0 -8.125,-0.554 -8.125,-0.554 0.117,0 -11.993,0.183 -11.993,0.183 0,0 -0.254,0.02 -0.371,0.02 -0.429,0 -0.82,-0.157 -1.113,-0.43 -0.293,-0.312 -0.469,-0.684 -0.469,-1.102 v -4.933 c 0,-0.43 0.176,-0.82 0.469,-1.094 0.293,-0.293 0.703,-0.449 1.152,-0.43 l 0.352,0.032 c -0.02,0 8.515,0.183 12.148,0.261 v -0.046 c 0,-0.012 0,-66.418 0,-77.336 l -12.168,0.175 c 0.02,0 -0.254,0 -0.371,0.02 -0.429,0 -0.82,-0.156 -1.113,-0.449 -0.293,-0.274 -0.469,-0.684 -0.469,-1.075 v -4.882 c 0,-0.84 0.703,-1.524 1.543,-1.524 0.039,0 0.137,0 0.156,0 2.071,0.254 5.743,0.684 20.118,0.684 h 0.918 c 13.339,0 17.871,-0.274 20.117,-0.508 0.429,-0.059 0.859,0.098 1.172,0.391 0.312,0.273 0.507,0.683 0.507,1.113 v 4.707 c 0,0.41 -0.175,0.781 -0.468,1.074 -0.274,0.274 -0.684,0.449 -1.075,0.449 l -12.304,-0.175 v 0.039 c 0,0.019 0,35.293 0,35.293 0,22.863 15.801,44.511 32.519,44.511 10.313,0 14.141,-4.863 14.141,-17.929 v -61.914 l -12.734,0.175 c -0.411,0 -0.801,-0.136 -1.094,-0.429 -0.293,-0.274 -0.469,-0.684 -0.469,-1.094 v -4.766 c 0,-0.429 0.176,-0.84 0.508,-1.113 0.312,-0.293 0.723,-0.449 1.172,-0.391 2.871,0.235 7.754,0.567 20.311,0.567 h 0.96 c 9.98,0 16.64,-0.156 20.41,-0.43 0.41,-0.039 0.84,0.098 1.15,0.391 0.31,0.273 0.49,0.683 0.49,1.113 v 4.629 c 0,0.41 -0.18,0.781 -0.47,1.074 -0.25,0.274 -0.66,0.449 -1.07,0.43"
           style="fill:#000000;fill-opacity:1;fill-rule:nonzero;stroke:none"
           id="path38"
           inkscape:connector-curvature="0" />
        <path
           d="m 1134.79,115.996 v 4.942 c 0,0.449 -0.2,0.878 -0.53,1.171 -0.31,0.274 -0.78,0.391 -1.21,0.332 -1.86,-0.234 -4.94,-0.683 -12.68,-0.683 h -0.08 v 140.906 c 0,2.484 -1.79,4.184 -3.45,4.184 -0.14,-0.032 -4.87,-0.395 -4.83,-0.395 l -8.44,-0.594 c 0.12,0.032 -11.17,0.176 -11.17,0.176 -0.41,0.02 -0.78,-0.144 -1.11,-0.449 -0.27,-0.273 -0.43,-0.684 -0.43,-1.074 v -4.61 c 0,-0.449 0.19,-0.859 0.49,-1.14 0.33,-0.305 0.76,-0.434 1.19,-0.395 1.8,0.168 4.88,0.363 11.13,0.363 h 0.06 v -64.968 l -0.14,0.242 c -6.21,10.547 -16.54,16.855 -27.65,16.855 -23.73,0 -39.67,-20 -39.67,-49.765 0,-29.434 16.31,-50 39.67,-50 11.05,0 21.38,6.386 27.65,17.109 l 0.14,0.254 v -10.391 c 0,-2.519 1.8,-4.16 3.48,-4.16 0.08,0 4.82,0.313 4.82,0.313 l 8.44,0.488 c -0.12,0 12.77,-0.254 12.77,-0.254 0.41,0 0.78,0.156 1.1,0.449 0.31,0.274 0.45,0.684 0.45,1.094 z m -58.62,2.93 c -14.71,0 -21.25,13.008 -21.25,42.168 0,29.16 6.54,42.148 21.25,42.148 16.76,0 27.56,-16.543 27.56,-42.148 0,-25.606 -10.8,-42.168 -27.56,-42.168"
           style="fill:#000000;fill-opacity:1;fill-rule:nonzero;stroke:none"
           id="path40"
           inkscape:connector-curvature="0" />
        <path
           d="m 1068.51,42.2656 c 0,-7.4414 -4.15,-11.8359 -11.11,-11.8359 -6.94,0 -11.06,4.3945 -11.06,11.8359 v 31.0157 h -6.68 V 42.2656 c 0,-13.2422 9.17,-17.957 17.74,-17.957 8.62,0 17.79,4.7148 17.79,17.957 v 31.0157 h -6.68 V 42.2656"
           style="fill:#000000;fill-opacity:1;fill-rule:nonzero;stroke:none"
           id="path42"
           inkscape:connector-curvature="0" />
        <path
           d="m 1141.4,35.4492 c -1.64,2.7539 -21.91,37.8321 -21.91,37.8321 h -7.41 V 25.0898 h 6.68 c 0,0 0,33.9258 0,37.0391 1.61,-2.7266 21.47,-37.0391 21.47,-37.0391 h 7.83 v 48.1915 h -6.66 c 0,0 0,-34.7071 0,-37.8321"
           style="fill:#000000;fill-opacity:1;fill-rule:nonzero;stroke:none"
           id="path44"
           inkscape:connector-curvature="0" />
        <path
           d="m 1185.2,25.0898 h 6.69 v 48.1915 h -6.69 V 25.0898"
           style="fill:#000000;fill-opacity:1;fill-rule:nonzero;stroke:none"
           id="path46"
           inkscape:connector-curvature="0" />
        <path
           d="m 1244.26,33.8086 c -0.79,2.3047 -14.1,39.4727 -14.1,39.4727 h -7.09 l 17.94,-48.1915 h 6.36 l 18.26,48.1915 h -6.75 c 0,0 -12.21,-33.0274 -14.62,-39.4727"
           style="fill:#000000;fill-opacity:1;fill-rule:nonzero;stroke:none"
           id="path48"
           inkscape:connector-curvature="0" />
        <path
           d="m 1302.44,46.7969 c 0.89,0 17.1,0 17.1,0 v 6.0859 c 0,0 -16.21,0 -17.1,0 0,0.8555 0,13.4766 0,14.2852 0.89,0 18,0 18,0 v 6.1133 h -24.66 V 25.0898 h 25.5 v 6.0938 c 0,0 -17.95,0 -18.84,0 0,0.8555 0,14.7539 0,15.6133"
           style="fill:#000000;fill-opacity:1;fill-rule:nonzero;stroke:none"
           id="path50"
           inkscape:connector-curvature="0" />
        <path
           d="m 1379.34,44.3945 c 0,0.0586 -0.16,0.3516 -0.16,0.3516 -0.86,1.875 -1.84,3.5273 -3.58,4.6406 5,1.7266 8.16,5.8008 8.16,10.8946 0,8.4882 -5.09,13 -14.64,13 H 1356.2 V 25.0898 h 6.69 c 0,0 0,20.8282 0,21.7071 0.68,0 2.71,0 2.71,0 3.91,0 5.49,0 7.95,-5.4883 0.02,-0.0195 0.49,-1.1523 6.66,-15.5547 l 0.29,-0.6641 h 7.36 l -0.66,1.504 z m -12.7,8.4883 c 0,0 -3.01,0 -3.75,0 0,0.8555 0,13.4766 0,14.2852 0.74,0 3.59,0 3.59,0 6.37,0 10.58,-0.4571 10.58,-6.8867 0,-6.8516 -7.96,-7.3985 -10.42,-7.3985"
           style="fill:#000000;fill-opacity:1;fill-rule:nonzero;stroke:none"
           id="path52"
           inkscape:connector-curvature="0" />
        <path
           d="m 1479.75,25.0898 h 6.68 v 48.1915 h -6.68 V 25.0898"
           style="fill:#000000;fill-opacity:1;fill-rule:nonzero;stroke:none"
           id="path54"
           inkscape:connector-curvature="0" />
        <path
           d="m 1433.04,53.0742 c -4.59,2.4219 -8.52,4.5156 -8.52,8.0313 0,6.3945 6.78,6.8828 8.89,6.8828 3.15,0 6.1,-0.586 7.84,-1.5899 l 1.33,-0.7461 0.98,5.6485 c 0,0.0195 0.18,0.8867 0.18,0.8867 l -0.83,0.293 c -4.02,1.4648 -8.22,1.6015 -9.44,1.6015 -9.18,0 -15.62,-5.3906 -15.62,-13.0547 0,-7.1132 6.5,-10.6679 12.21,-13.8007 4.61,-2.5391 8.89,-4.8828 8.89,-8.4571 0,-5.2343 -3.44,-8.3398 -9.3,-8.3398 -3.84,0 -6.87,0.7695 -9.58,2.5312 l -1.48,0.8672 -0.72,-7.1172 0.7,-0.332 c 2.2,-0.9375 5.79,-2.0703 10.86,-2.0703 8.07,0 16.18,4.3437 16.18,14.0703 0,8.0078 -6.68,11.5547 -12.57,14.6953"
           style="fill:#000000;fill-opacity:1;fill-rule:nonzero;stroke:none"
           id="path56"
           inkscape:connector-curvature="0" />
        <path
           d="m 1515.37,67.168 c 0,0 13.37,0 14.23,0 0,-0.9063 0,-42.0782 0,-42.0782 h 6.69 c 0,0 0,41.1719 0,42.0782 0.88,0 14.23,0 14.23,0 v 6.1133 h -35.15 V 67.168"
           style="fill:#000000;fill-opacity:1;fill-rule:nonzero;stroke:none"
           id="path58"
           inkscape:connector-curvature="0" />
        <path
           d="m 1593.41,51.6992 c -0.71,1.1836 -13.31,21.2891 -13.31,21.2891 l -0.43,0.293 h -7.55 l 18.07,-28.0079 -0.12,-20.1836 h 6.7 v 20.418 c 0.05,-0.039 16.92,26.1445 16.92,26.1445 l 1.08,1.629 h -7.5 c 0,0 -13.1,-20.4219 -13.86,-21.5821"
           style="fill:#000000;fill-opacity:1;fill-rule:nonzero;stroke:none"
           id="path60"
           inkscape:connector-curvature="0" />
      </g>
    </g>
  </g>
</svg>
